<svg width="24" height="24" viewBox="0 0 24 24" fill="none" xmlns="http://www.w3.org/2000/svg">
<path fill-rule="evenodd" clip-rule="evenodd" d="M6 7C6 4.23858 8.23858 2 11 2C13.7614 2 16 4.23858 16 7C16 9.76142 13.7614 12 11 12C8.23858 12 6 9.76142 6 7ZM11 4C9.34315 4 8 5.34315 8 7C8 8.65685 9.34315 10 11 10C12.6569 10 14 8.65685 14 7C14 5.34315 12.6569 4 11 4ZM11 13C13.3955 13 15.5753 13.6937 17.1777 14.6715C17.9786 15.1602 18.6621 15.7363 19.156 16.3615C19.642 16.9767 20 17.713 20 18.5C20 19.3449 19.5889 20.0111 18.9973 20.4859C18.4368 20.9359 17.6982 21.2336 16.9128 21.4416C15.3353 21.8593 13.229 22 11 22C8.77101 22 6.66466 21.8593 5.08716 21.4416C4.30182 21.2336 3.56324 20.9359 3.00266 20.4859C2.41114 20.0111 2 19.3449 2 18.5C2 17.713 2.35805 16.9767 2.84397 16.3615C3.33788 15.7363 4.02143 15.1602 4.82227 14.6715C6.42467 13.6937 8.60453 13 11 13ZM11 15C8.97719 15 7.15705 15.5898 5.86402 16.3788C5.21714 16.7735 4.72913 17.2015 4.41339 17.6013C4.08967 18.0111 4 18.3206 4 18.5C4 18.6216 4.03657 18.7512 4.2547 18.9263C4.50376 19.1262 4.93676 19.3328 5.59914 19.5082C6.91706 19.8572 8.81071 20 11 20C13.1893 20 15.0829 19.8572 16.4009 19.5082C17.0632 19.3328 17.4962 19.1262 17.7453 18.9263C17.9634 18.7512 18 18.6216 18 18.5C18 18.3206 17.9103 18.0111 17.5866 17.6013C17.2709 17.2015 16.7829 16.7735 16.136 16.3788C14.8429 15.5898 13.0228 15 11 15ZM21 13C21.5523 13 22 13.4477 22 14C22 14.5128 21.614 14.9355 21.1166 14.9933L21 15H20C19.4477 15 19 14.5523 19 14C19 13.4872 19.386 13.0645 19.8834 13.0067L20 13H21ZM18 11C18 10.4477 18.4477 10 19 10H21C21.5523 10 22 10.4477 22 11C22 11.5523 21.5523 12 21 12H19C18.4477 12 18 11.5523 18 11ZM18 7C17.4477 7 17 7.44772 17 8C17 8.55228 17.4477 9 18 9H21C21.5523 9 22 8.55228 22 8C22 7.44772 21.5523 7 21 7H18Z" fill="white"/>
</svg>
